<?xml version="1.0" encoding="UTF-8" standalone="no"?>
<!-- Generator: Adobe Illustrator 21.1.0, SVG Export Plug-In . SVG Version: 6.00 Build 0)  -->

<svg
   xmlns:dc="http://purl.org/dc/elements/1.1/"
   xmlns:cc="http://creativecommons.org/ns#"
   xmlns:rdf="http://www.w3.org/1999/02/22-rdf-syntax-ns#"
   xmlns:svg="http://www.w3.org/2000/svg"
   xmlns="http://www.w3.org/2000/svg"
   xmlns:xlink="http://www.w3.org/1999/xlink"
   xmlns:sodipodi="http://sodipodi.sourceforge.net/DTD/sodipodi-0.dtd"
   xmlns:inkscape="http://www.inkscape.org/namespaces/inkscape"
   version="1.1"
   id="Layer_1"
   x="0px"
   y="0px"
   viewBox="0 0 747.00003 249.99998"
   xml:space="preserve"
   inkscape:version="0.91 r13725"
   sodipodi:docname="osgeo-logo-cmyk_portugal_final.svg"
   width="747"
   height="250"
   inkscape:export-filename="C:\Users\pedro\Desktop\osgeo-logo-cmyk_portugal_final.png"
   inkscape:export-xdpi="150.12"
   inkscape:export-ydpi="150.12"><metadata
     id="metadata41"><rdf:RDF><cc:Work
         rdf:about=""><dc:format>image/svg+xml</dc:format><dc:type
           rdf:resource="http://purl.org/dc/dcmitype/StillImage" /><dc:title></dc:title></cc:Work></rdf:RDF></metadata><defs
     id="defs39"><clipPath
       id="SVGID_2_-1"><rect
         height="180.10001"
         width="552.09998"
         y="0"
         id="use11-1"
         x="0" /></clipPath><clipPath
       id="clipPath3403"><rect
         height="180.10001"
         width="552.09998"
         y="0"
         id="use3405"
         x="0" /></clipPath><clipPath
       id="clipPath3407"><rect
         height="180.10001"
         width="552.09998"
         y="0"
         id="use3409"
         x="0" /></clipPath><clipPath
       id="clipPath3411"><rect
         height="180.10001"
         width="552.09998"
         y="0"
         id="use3413"
         x="0" /></clipPath><clipPath
       id="clipPath3415"><rect
         height="180.10001"
         width="552.09998"
         y="0"
         id="use3417"
         x="0" /></clipPath><clipPath
       id="clipPath3419"><rect
         height="180.10001"
         width="552.09998"
         y="0"
         id="use3421"
         x="0" /></clipPath><clipPath
       id="clipPath3423"><rect
         height="180.10001"
         width="552.09998"
         y="0"
         id="use3425"
         x="0" /></clipPath><clipPath
       id="clipPath3427"><rect
         height="180.10001"
         width="552.09998"
         y="0"
         id="use3429"
         x="0" /></clipPath><clipPath
       id="clipPath3431"><rect
         height="180.10001"
         width="552.09998"
         y="0"
         id="use3433"
         x="0" /></clipPath><clipPath
       id="clipPath3435"><rect
         height="180.10001"
         width="552.09998"
         y="0"
         id="use3437"
         x="0" /></clipPath><clipPath
       id="clipPath3439"><rect
         height="180.10001"
         width="552.09998"
         y="0"
         id="use3441"
         x="0" /></clipPath><clipPath
       id="clipPath3443"><rect
         height="180.10001"
         width="552.09998"
         y="0"
         id="use3445"
         x="0" /></clipPath><clipPath
       id="SVGID_2_-0"><use
         height="100%"
         width="100%"
         y="0"
         x="0"
         xlink:href="#SVGID_1_"
         style="overflow:visible"
         id="use11-2" /></clipPath><clipPath
       id="clipPath3580"><use
         height="100%"
         width="100%"
         y="0"
         x="0"
         xlink:href="#SVGID_1_"
         style="overflow:visible"
         id="use3582" /></clipPath><clipPath
       id="clipPath3584"><use
         height="100%"
         width="100%"
         y="0"
         x="0"
         xlink:href="#SVGID_1_"
         style="overflow:visible"
         id="use3586" /></clipPath><clipPath
       id="clipPath3588"><use
         height="100%"
         width="100%"
         y="0"
         x="0"
         xlink:href="#SVGID_1_"
         style="overflow:visible"
         id="use3590" /></clipPath><clipPath
       id="clipPath3592"><use
         height="100%"
         width="100%"
         y="0"
         x="0"
         xlink:href="#SVGID_1_"
         style="overflow:visible"
         id="use3594" /></clipPath><clipPath
       id="clipPath3596"><use
         height="100%"
         width="100%"
         y="0"
         x="0"
         xlink:href="#SVGID_1_"
         style="overflow:visible"
         id="use3598" /></clipPath><clipPath
       id="clipPath3600"><use
         height="100%"
         width="100%"
         y="0"
         x="0"
         xlink:href="#SVGID_1_"
         style="overflow:visible"
         id="use3602" /></clipPath><clipPath
       id="clipPath3604"><use
         height="100%"
         width="100%"
         y="0"
         x="0"
         xlink:href="#SVGID_1_"
         style="overflow:visible"
         id="use3606" /></clipPath><clipPath
       id="clipPath3608"><use
         height="100%"
         width="100%"
         y="0"
         x="0"
         xlink:href="#SVGID_1_"
         style="overflow:visible"
         id="use3610" /></clipPath><clipPath
       id="clipPath3612"><use
         height="100%"
         width="100%"
         y="0"
         x="0"
         xlink:href="#SVGID_1_"
         style="overflow:visible"
         id="use3614" /></clipPath><clipPath
       id="clipPath3616"><use
         height="100%"
         width="100%"
         y="0"
         x="0"
         xlink:href="#SVGID_1_"
         style="overflow:visible"
         id="use3618" /></clipPath><clipPath
       id="clipPath3620"><use
         height="100%"
         width="100%"
         y="0"
         x="0"
         xlink:href="#SVGID_1_"
         style="overflow:visible"
         id="use3622" /></clipPath><clipPath
       id="SVGID_2_-9"><use
         height="100%"
         width="100%"
         y="0"
         x="0"
         xlink:href="#SVGID_1_"
         style="overflow:visible"
         id="use11-0" /></clipPath><clipPath
       id="clipPath3812"><use
         height="100%"
         width="100%"
         y="0"
         x="0"
         xlink:href="#SVGID_1_"
         style="overflow:visible"
         id="use3814" /></clipPath><clipPath
       id="clipPath3816"><use
         height="100%"
         width="100%"
         y="0"
         x="0"
         xlink:href="#SVGID_1_"
         style="overflow:visible"
         id="use3818" /></clipPath><clipPath
       id="clipPath3820"><use
         height="100%"
         width="100%"
         y="0"
         x="0"
         xlink:href="#SVGID_1_"
         style="overflow:visible"
         id="use3822" /></clipPath><clipPath
       id="clipPath3824"><use
         height="100%"
         width="100%"
         y="0"
         x="0"
         xlink:href="#SVGID_1_"
         style="overflow:visible"
         id="use3826" /></clipPath><clipPath
       id="clipPath3828"><use
         height="100%"
         width="100%"
         y="0"
         x="0"
         xlink:href="#SVGID_1_"
         style="overflow:visible"
         id="use3830" /></clipPath><clipPath
       id="clipPath3832"><use
         height="100%"
         width="100%"
         y="0"
         x="0"
         xlink:href="#SVGID_1_"
         style="overflow:visible"
         id="use3834" /></clipPath><clipPath
       id="clipPath3836"><use
         height="100%"
         width="100%"
         y="0"
         x="0"
         xlink:href="#SVGID_1_"
         style="overflow:visible"
         id="use3838" /></clipPath><clipPath
       id="clipPath3840"><use
         height="100%"
         width="100%"
         y="0"
         x="0"
         xlink:href="#SVGID_1_"
         style="overflow:visible"
         id="use3842" /></clipPath><clipPath
       id="clipPath3844"><use
         height="100%"
         width="100%"
         y="0"
         x="0"
         xlink:href="#SVGID_1_"
         style="overflow:visible"
         id="use3846" /></clipPath><clipPath
       id="clipPath3848"><use
         height="100%"
         width="100%"
         y="0"
         x="0"
         xlink:href="#SVGID_1_"
         style="overflow:visible"
         id="use3850" /></clipPath><clipPath
       id="clipPath3852"><use
         height="100%"
         width="100%"
         y="0"
         x="0"
         xlink:href="#SVGID_1_"
         style="overflow:visible"
         id="use3854" /></clipPath></defs><sodipodi:namedview
     pagecolor="#ffffff"
     bordercolor="#666666"
     borderopacity="1"
     objecttolerance="10"
     gridtolerance="10"
     guidetolerance="10"
     inkscape:pageopacity="0"
     inkscape:pageshadow="2"
     inkscape:window-width="1536"
     inkscape:window-height="801"
     id="namedview37"
     showgrid="false"
     inkscape:zoom="0.91446163"
     inkscape:cx="421.36328"
     inkscape:cy="92.516229"
     inkscape:window-x="-8"
     inkscape:window-y="-8"
     inkscape:window-maximized="1"
     inkscape:current-layer="Layer_1"
     showborder="true"
     borderlayer="true" /><style
     type="text/css"
     id="style3">
	.st0{clip-path:url(#SVGID_2_);fill:#4DB05B;}
	.st1{clip-path:url(#SVGID_2_);fill:#003A40;}
</style><g
     id="g5"
     transform="translate(13.092997,32.637215)"><defs
       id="defs7"><rect
         id="SVGID_1_"
         y="0"
         width="552.09998"
         height="180.10001"
         x="0" /></defs><clipPath
       id="SVGID_2_"><use
         xlink:href="#SVGID_1_"
         style="overflow:visible"
         id="use11"
         x="0"
         y="0"
         width="100%"
         height="100%" /></clipPath><path
       class="st0"
       d="m 218.7,131.7 c -5,-2.9 -9,-6.9 -11.9,-11.9 -2.9,-5 -4.4,-10.5 -4.4,-16.5 l 0,-26.5 c 0,-6 1.5,-11.5 4.4,-16.5 2.9,-5 6.9,-9 11.9,-11.9 5,-2.9 10.5,-4.4 16.4,-4.4 5.9,0 11.4,1.5 16.4,4.4 5,2.9 9,6.9 11.9,11.9 2.9,5 4.4,10.5 4.4,16.5 l 0,26.5 c 0,6 -1.5,11.5 -4.4,16.5 -2.9,5 -6.9,9 -11.9,11.9 -5,2.9 -10.5,4.4 -16.4,4.4 -5.9,0 -11.4,-1.5 -16.4,-4.4 m 25.2,-12.6 c 2.7,-1.7 4.9,-3.9 6.5,-6.7 1.6,-2.8 2.4,-5.8 2.4,-9.1 l 0,-26.5 c 0,-3.2 -0.8,-6.3 -2.4,-9.1 -1.6,-2.8 -3.8,-5.1 -6.5,-6.7 -2.7,-1.7 -5.6,-2.5 -8.8,-2.5 -3.1,0 -6.1,0.8 -8.8,2.5 -2.7,1.7 -4.9,3.9 -6.5,6.7 -1.6,2.8 -2.4,5.8 -2.4,9.1 l 0,26.5 c 0,3.2 0.8,6.3 2.4,9.1 1.6,2.8 3.8,5.1 6.5,6.7 2.7,1.7 5.6,2.5 8.8,2.5 3.1,-0.1 6.1,-0.9 8.8,-2.5"
       id="path13"
       clip-path="url(#SVGID_2_)"
       inkscape:connector-curvature="0"
       style="fill:#4db05b" /><path
       class="st0"
       d="m 291.8,133.8 c -4.3,-1.4 -8.3,-3.5 -12,-6 -0.4,-0.2 -0.7,-0.7 -0.9,-1.3 -0.2,-0.6 -0.1,-1.2 0.1,-1.7 l 4.3,-7.8 c 0.5,-1 1.3,-1.5 2.3,-1.5 0.7,0 1.3,0.2 1.9,0.5 6.2,3.9 11.9,5.8 17.3,5.8 4.4,0 7.8,-1.1 10.3,-3.2 2.5,-2.1 3.8,-4.9 3.8,-8.3 0,-2.2 -0.6,-4.1 -1.9,-5.7 -1.2,-1.5 -2.9,-2.8 -4.9,-3.9 -2.1,-1.1 -5.1,-2.4 -9,-4 l -3.6,-1.5 c -5.6,-2.4 -10.3,-5.5 -14.1,-9.2 -3.8,-3.7 -5.8,-9.2 -5.8,-16.4 0,-5.1 1.1,-9.5 3.4,-13.4 2.3,-3.9 5.4,-6.9 9.5,-9.1 4,-2.2 8.7,-3.2 14,-3.2 4.4,0 8.7,0.7 13,2.2 4.3,1.5 8.2,3.5 11.7,6 0.4,0.2 0.7,0.7 0.9,1.3 0.2,0.6 0.1,1.2 -0.1,1.7 l -4.1,7.8 c -0.5,1 -1.3,1.5 -2.4,1.5 -0.7,0 -1.3,-0.2 -1.9,-0.5 -3.2,-2.1 -6.3,-3.6 -9.2,-4.5 -2.9,-0.9 -5.5,-1.4 -7.8,-1.4 -3.7,0 -6.6,1 -8.8,3 -2.1,2 -3.2,4.6 -3.2,7.8 0,3.2 1.2,5.9 3.5,8 2.4,2.1 6.1,4.2 11.3,6.4 0.7,0.2 3.6,1.4 8.5,3.4 4.9,2 8.8,5 11.7,8.9 2.9,3.9 4.3,8.5 4.3,13.8 0,5.1 -1.2,9.7 -3.6,13.7 -2.4,4 -5.8,7.1 -10.2,9.4 -4.4,2.3 -9.4,3.4 -15.1,3.4 -4.5,0.2 -8.9,-0.6 -13.2,-2"
       id="path15"
       clip-path="url(#SVGID_2_)"
       inkscape:connector-curvature="0"
       style="fill:#4db05b" /><path
       class="st1"
       d="m 361.8,131.7 c -5,-2.9 -8.9,-6.9 -11.9,-11.9 -2.9,-5 -4.4,-10.5 -4.4,-16.5 l 0,-26.5 c 0,-6 1.5,-11.5 4.4,-16.5 2.9,-5 6.9,-9 11.9,-11.9 5,-2.9 10.4,-4.4 16.4,-4.4 5.2,0 10,0.9 14.5,2.8 4.4,1.9 8.2,4.6 11.4,8.1 0.5,0.6 0.7,1.3 0.7,2.1 0,0.8 -0.3,1.7 -1,2.5 l -5.4,5.7 c -0.7,0.7 -1.3,1 -2,1 -0.8,0 -1.6,-0.4 -2.2,-1.1 -4.1,-4.4 -9.4,-6.6 -15.8,-6.6 -3.1,0 -6.1,0.8 -8.8,2.5 -2.7,1.7 -4.9,3.9 -6.5,6.7 -1.6,2.8 -2.4,5.8 -2.4,9.1 l 0,26.5 c 0,3.2 0.8,6.3 2.4,9.1 1.6,2.8 3.8,5.1 6.5,6.7 2.7,1.7 5.6,2.5 8.8,2.5 3.1,0 6.1,-0.8 8.8,-2.4 2.7,-1.6 4.9,-3.7 6.4,-6.5 1.6,-2.7 2.3,-5.7 2.3,-8.9 l 0,-6.1 -16.6,0 c -0.7,0 -1.4,-0.2 -1.9,-0.7 -0.5,-0.5 -0.7,-1.1 -0.7,-1.9 l 0,-8.9 c 0,-0.7 0.2,-1.4 0.7,-1.9 0.5,-0.5 1.1,-0.7 1.9,-0.7 l 26.1,0 c 1.5,0 2.7,0.5 3.8,1.5 1,1 1.5,2.3 1.5,3.8 l 0,14.4 c 0,6 -1.5,11.5 -4.4,16.5 -2.9,5 -6.9,9 -11.9,11.9 -5,2.9 -10.4,4.4 -16.2,4.4 -6,0 -11.4,-1.5 -16.4,-4.4"
       id="path17"
       clip-path="url(#SVGID_2_)"
       inkscape:connector-curvature="0"
       style="fill:#003a40" /><path
       class="st1"
       d="m 438,130.5 c -4.5,-2.6 -8.1,-6.3 -10.7,-10.8 -2.6,-4.5 -4,-9.5 -4,-14.9 l 0,-13.4 c 0,-5.4 1.3,-10.4 4,-14.9 2.6,-4.5 6.2,-8.2 10.7,-10.8 4.5,-2.6 9.4,-4 14.8,-4 5.4,0 10.3,1.3 14.8,4 4.5,2.6 8.1,6.3 10.7,10.8 2.6,4.6 4,9.5 4,14.9 l 0,8.3 c 0,1.5 -0.5,2.7 -1.5,3.8 -1,1 -2.3,1.5 -3.8,1.5 l -38.7,0 0,0.6 c 0,4.1 1.4,7.5 4.3,10.4 2.9,2.9 6.3,4.3 10.3,4.3 l 19.6,0 c 0.7,0 1.4,0.3 1.9,0.8 0.5,0.5 0.7,1.1 0.7,1.9 l 0,9 c 0,0.7 -0.2,1.4 -0.7,1.9 -0.5,0.5 -1.1,0.7 -1.9,0.7 l -19.6,0 c -5.5,-0.1 -10.5,-1.5 -14.9,-4.1 m 29.3,-38.9 0,-1.1 c 0,-4.1 -1.4,-7.5 -4.3,-10.4 -2.8,-2.9 -6.3,-4.3 -10.3,-4.3 -4,0 -7.5,1.4 -10.3,4.3 -2.8,2.9 -4.3,6.3 -4.3,10.4 l 0,1.1 29.2,0 z"
       id="path19"
       clip-path="url(#SVGID_2_)"
       inkscape:connector-curvature="0"
       style="fill:#003a40" /><path
       class="st1"
       d="m 508,132.2 c -4.5,-2.6 -8.1,-6.1 -10.7,-10.6 -2.6,-4.5 -3.9,-9.3 -3.9,-14.5 l 0,-16.4 c 0,-5.2 1.3,-10.1 3.9,-14.5 2.6,-4.5 6.2,-8 10.7,-10.6 4.5,-2.6 9.4,-3.9 14.8,-3.9 5.4,0 10.3,1.3 14.8,3.9 4.5,2.6 8.1,6.2 10.7,10.6 2.6,4.5 4,9.3 4,14.5 l 0,16.3 c 0,5.2 -1.3,10.1 -4,14.5 -2.6,4.5 -6.2,8 -10.7,10.6 -4.5,2.6 -9.4,3.9 -14.8,3.9 -5.4,0.1 -10.4,-1.2 -14.8,-3.8 m 25,-14.8 c 2.8,-2.9 4.3,-6.3 4.3,-10.4 l 0,-16.3 c 0,-4.1 -1.4,-7.5 -4.3,-10.4 -2.8,-2.9 -6.3,-4.3 -10.3,-4.3 -4,0 -7.5,1.4 -10.3,4.3 -2.8,2.9 -4.3,6.3 -4.3,10.4 l 0,16.3 c 0,4.1 1.4,7.5 4.3,10.4 2.8,2.9 6.3,4.3 10.3,4.3 4.1,0 7.5,-1.5 10.3,-4.3"
       id="path21"
       clip-path="url(#SVGID_2_)"
       inkscape:connector-curvature="0"
       style="fill:#003a40" /><path
       class="st0"
       d="m 85.5,36.2 0,-18 L 85.5,0 74.2,19.8 C 43.4,26.7 20.1,53.2 18.1,85.6 l 18.1,0 C 38.4,59.3 59.3,38.4 85.5,36.2"
       id="path23"
       clip-path="url(#SVGID_2_)"
       inkscape:connector-curvature="0"
       style="fill:#4db05b" /><path
       class="st1"
       d="m 36.2,94.6 -18,0 -18.2,0 19.8,11.3 c 6.9,30.8 33.4,54.1 65.8,56.1 l 0,-18.1 C 59.3,141.7 38.4,120.8 36.2,94.6"
       id="path25"
       clip-path="url(#SVGID_2_)"
       inkscape:connector-curvature="0"
       style="fill:#003a40" /><path
       class="st1"
       d="m 143.9,85.5 18.1,0 18.2,0 -19.8,-11.3 C 153.5,43.4 127,20.1 94.6,18.1 l 0,18.1 c 26.2,2.2 47.1,23.1 49.3,49.3"
       id="path27"
       clip-path="url(#SVGID_2_)"
       inkscape:connector-curvature="0"
       style="fill:#003a40" /><path
       class="st0"
       d="m 94.6,143.9 0,18.1 0,18.2 11.3,-19.8 C 136.7,153.5 160,127 162,94.6 l -18.1,0 c -2.2,26.2 -23.1,47.1 -49.3,49.3"
       id="path29"
       clip-path="url(#SVGID_2_)"
       inkscape:connector-curvature="0"
       style="fill:#4db05b" /><path
       class="st1"
       d="M 95.6,84.5 62.2,62.2 84.5,95.6 117.9,117.9 95.6,84.5 Z M 90,93.9 c -2.2,0 -3.9,-1.8 -3.9,-3.9 0,-2.2 1.8,-3.9 3.9,-3.9 2.1,0 3.9,1.8 3.9,3.9 0,2.1 -1.7,3.9 -3.9,3.9"
       id="path31"
       clip-path="url(#SVGID_2_)"
       inkscape:connector-curvature="0"
       style="fill:#003a40" /><polygon
       class="st0"
       points="77,95.7 62.2,117.9 84.3,103.1 90,137.3 95.7,103.1 84.5,95.6 77,84.4 42.8,90.1 "
       id="polygon33"
       clip-path="url(#SVGID_2_)"
       style="fill:#4db05b" /><polygon
       class="st0"
       points="90,42.8 84.4,77 95.6,84.5 103.1,95.7 137.3,90 103.1,84.4 117.9,62.2 95.7,77 "
       id="polygon35"
       clip-path="url(#SVGID_2_)"
       style="fill:#4db05b" /></g><flowRoot
     xml:space="preserve"
     id="flowRoot3369"
     style="font-style:normal;font-weight:normal;font-size:90px;line-height:125%;font-family:sans-serif;letter-spacing:0px;word-spacing:0px;fill:#003a40;fill-opacity:1;stroke:none;stroke-width:1px;stroke-linecap:butt;stroke-linejoin:miter;stroke-opacity:1"
     transform="translate(52.371988,51.195215)"><flowRegion
       id="flowRegion3371"><rect
         id="rect3373"
         width="641.79688"
         height="378.89215"
         x="556.73944"
         y="0.70617652"
         style="font-size:90px;fill:#003a40;fill-opacity:1" /></flowRegion><flowPara
       id="flowPara3375"><flowSpan
         style="font-style:normal;font-variant:normal;font-weight:bold;font-stretch:normal;font-size:118.75px;font-family:'Miriam Libre';-inkscape-font-specification:'Miriam Libre Bold';fill:#003a40;fill-opacity:1"
         id="flowSpan3377">pt</flowSpan></flowPara></flowRoot><ellipse
     style="fill:#4db05b;fill-opacity:1"
     id="path3391"
     cx="592.85034"
     cy="132.14566"
     rx="9.0994167"
     ry="9.3728018" /></svg>